<?xml version="1.0" encoding="utf-8"?>
<!-- Generator: Adobe Illustrator 16.0.1, SVG Export Plug-In . SVG Version: 6.00 Build 0)  -->
<!DOCTYPE svg PUBLIC "-//W3C//DTD SVG 1.1//EN" "http://www.w3.org/Graphics/SVG/1.1/DTD/svg11.dtd">
<svg version="1.1" id="Layer_1" xmlns="http://www.w3.org/2000/svg" xmlns:xlink="http://www.w3.org/1999/xlink" x="0px" y="0px"
	 width="86px" height="73px" viewBox="0 0 86 73" enable-background="new 0 0 86 73" xml:space="preserve">
<path fill="#231F20" d="M51.32,64.9h7.59c-6.154,4.853-13.918,7.757-22.364,7.759C16.575,72.657,0.387,56.47,0.387,36.5
	c0-19.968,16.188-36.158,36.16-36.159c11.293,0,21.372,5.185,28.002,13.295h-5.016c-5.59-5.22-13.09-8.423-21.342-8.438
	C20.901,5.229,6.922,19.211,6.884,36.5c0.039,17.287,14.017,31.271,31.307,31.3C42.884,67.796,47.328,66.749,51.32,64.9z
	 M72.389,17.935H52.654v0.938c2.617,0.404,3.422,0.941,3.422,2.82v17.478c-5.92-1.358-9.92-2.447-14.555-2.447
	c-13.462,0-15.819,12.693-15.819,12.693c7.785-10.697,15.188-8.295,30.374-5.582v0.199c-2.129,8.442-11.24,13.377-22.239,13.366
	c-8.14-0.006-15.612-6.069-15.604-14.686c0.009-11.923,11.152-14.003,21.285-14.75c1.228-0.093,1.703-0.281,1.703-1.13l-4.157,0.101
	c-4.752,0-9.267-1.72-9.267-6.949c0-5.942,5.227-7.129,7.782-7.129c3.562,0,6.772,1.606,8.019,5.17h0.829
	c-0.297-2.258-0.53-4.46-0.59-6.718c-2.613-0.886-5.583-1.421-8.316-1.421c-5.583,0-13.189,2.969-13.189,9.98
	c0,2.808,1.779,5.018,4.099,6.295c-9.076,2.171-15.409,6.617-15.416,16.734c-0.01,7.666,5.188,18.653,22.889,18.672
	c10.73,0.008,18.665-4.06,22.174-12.695v7.857c0,1.883-0.805,2.418-3.422,2.822v0.938H66.08v-0.938
	c-2.619-0.404-3.424-0.939-3.424-2.822V21.29h1.746c9.061,0,15.035,1.277,15.035,9.867c0,6.31-4.832,9.804-11.144,9.804h-4.026
	c-0.604,0-0.941,0.199-0.941,0.537c0,0.334,0.201,0.469,0.404,0.67c1.209,1.141,4.83,1.744,6.442,1.744
	c9.062,0,15.438-5.234,15.438-13.424C85.613,23.037,81.248,17.935,72.389,17.935z"/>
</svg>
